<svg width="287" height="359" viewBox="0 0 287 359" fill="none" xmlns="http://www.w3.org/2000/svg">
<path fill-rule="evenodd" clip-rule="evenodd" d="M157.73 98.5C157.063 94.5 156.397 90.5 155.73 86.5C155.67 82.486 154.003 79.319 150.73 77C139.62 73.779 128.953 69.445 118.73 64C103.432 48.438 101.932 31.604 114.23 13.5C126.14 -0.445037 140.306 -3.27804 156.73 4.99996C170.489 16.655 169.823 27.655 154.73 38C150.124 41.033 145.124 42.033 139.73 41C135.064 37.158 133.73 32.325 135.73 26.5C136.89 31.411 139.89 33.244 144.73 32C150.776 30.17 154.776 26.337 156.73 20.5C156.127 17.378 154.46 14.878 151.73 13C135.647 6.61896 124.147 11.452 117.23 27.5C112.726 42.649 117.559 53.482 131.73 60C138.321 62.531 144.988 64.864 151.73 67C158.004 69.426 161.337 73.926 161.73 80.5C161.287 86.717 159.954 92.717 157.73 98.5Z" fill="#B28317"/>
<path fill-rule="evenodd" clip-rule="evenodd" d="M185.729 49.4999C195.438 48.1079 202.938 51.4419 208.229 59.4999C208.918 66.6299 206.418 72.4629 200.729 76.9999C192.702 80.6129 188.535 78.1129 188.229 69.4999C193.248 73.6949 197.248 72.6949 200.229 66.4999C201.773 61.3769 199.939 58.2109 194.729 56.9999C185.162 56.2089 178.662 60.3749 175.229 69.4999C174.724 74.8839 174.724 80.2179 175.229 85.4999C164.612 69.5079 168.112 57.5079 185.729 49.4999Z" fill="#B4851F"/>
<path fill-rule="evenodd" clip-rule="evenodd" d="M155.73 86.5C156.397 90.5 157.063 94.5 157.73 98.5C157.243 99.473 156.743 100.473 156.23 101.5C155.731 96.511 155.564 91.511 155.73 86.5Z" fill="#CDAF69"/>
<path fill-rule="evenodd" clip-rule="evenodd" d="M160.73 300.5C160.73 287.167 160.73 273.833 160.73 260.5C158.171 260.198 155.837 260.532 153.73 261.5C139.284 262.028 125.617 265.528 112.73 272C109.962 273.762 108.462 276.262 108.23 279.5C106.917 280.573 105.417 281.24 103.73 281.5C93.5707 274.282 82.2367 269.782 69.7297 268C47.4737 265.456 25.1407 264.122 2.72974 264C2.10374 263.25 1.60374 262.416 1.22974 261.5C0.562742 213.167 0.562742 164.833 1.22974 116.5C2.06274 115.667 2.89674 114.833 3.72974 114C32.1697 112.29 60.1697 114.957 87.7297 122C93.0087 123.973 98.0087 126.473 102.73 129.5C114.301 121.029 127.301 116.196 141.73 115C166.998 111.527 191.665 113.86 215.73 122C231.346 128.4 237.013 139.9 232.73 156.5C262.638 155.915 280.471 170.249 286.23 199.5C287.063 227.015 275.23 246.848 250.73 259C245.206 261.099 239.539 262.599 233.73 263.5C232.9 269.138 232.4 274.804 232.23 280.5C230.513 285.549 227.346 289.382 222.73 292C204.076 300.832 184.409 304.832 163.73 304C162.52 302.961 161.52 301.794 160.73 300.5Z" fill="#B18113"/>
<path fill-rule="evenodd" clip-rule="evenodd" d="M37.7295 124.5C55.8765 124.953 73.5435 128.12 90.7295 134C93.4685 135.026 95.8015 136.526 97.7295 138.5C98.3905 180.847 97.7245 222.847 95.7295 264.5C74.9965 257.602 53.6635 254.269 31.7295 254.5C25.2505 253.509 18.5835 253.176 11.7295 253.5C11.7295 210.5 11.7295 167.5 11.7295 124.5C20.3965 124.5 29.0625 124.5 37.7295 124.5Z" fill="#FCFCFC"/>
<path fill-rule="evenodd" clip-rule="evenodd" d="M152.729 123.5C173.341 122.183 193.341 125.016 212.729 132C216.368 133.636 219.368 135.97 221.729 139C221.562 139.5 221.396 140 221.229 140.5C206.447 132.55 190.614 128.883 173.729 129.5C157.757 129.18 142.757 132.68 128.729 140C150.727 136.411 172.727 136.744 194.729 141C201.35 142.571 207.683 144.905 213.729 148C212.356 148.875 210.856 149.375 209.229 149.5C187.842 143.64 166.342 143.14 144.729 148C139.83 149.449 135.164 151.449 130.729 154C150.087 150.42 169.421 150.754 188.729 155C180.407 155.809 172.074 156.475 163.729 157C162.813 157.374 161.979 157.874 161.229 158.5C160.729 189.165 160.562 219.832 160.729 250.5C142.914 250.538 125.914 254.205 109.729 261.5C108.562 220.504 108.396 179.504 109.229 138.5C112.95 134.449 117.45 131.616 122.729 130C132.655 126.854 142.655 124.687 152.729 123.5Z" fill="#FCFAF7"/>
<path fill-rule="evenodd" clip-rule="evenodd" d="M37.7295 124.5C29.0625 124.5 20.3965 124.5 11.7295 124.5C11.7295 167.5 11.7295 210.5 11.7295 253.5C18.5835 253.176 25.2505 253.509 31.7295 254.5C24.7295 254.5 17.7295 254.5 10.7295 254.5C10.7295 210.833 10.7295 167.167 10.7295 123.5C19.9115 123.173 28.9115 123.507 37.7295 124.5Z" fill="#DFCDA3"/>
<path fill-rule="evenodd" clip-rule="evenodd" d="M181.729 170.5C179.729 170.5 177.729 170.5 175.729 170.5C175.729 211.833 175.729 253.167 175.729 294.5C173.729 294.5 171.729 294.5 169.729 294.5C169.729 251.5 169.729 208.5 169.729 165.5C187.655 165.594 204.655 162.094 220.729 155C209.066 163.391 196.066 168.557 181.729 170.5Z" fill="#C9A758"/>
<path fill-rule="evenodd" clip-rule="evenodd" d="M169.729 165.5C169.729 208.5 169.729 251.5 169.729 294.5C171.729 294.5 173.729 294.5 175.729 294.5C173.622 295.468 171.288 295.802 168.729 295.5C168.397 251.997 168.73 208.663 169.729 165.5Z" fill="#BE9536"/>
<path fill-rule="evenodd" clip-rule="evenodd" d="M232.729 172.5C259.047 172.983 271.214 186.316 269.229 212.5C264.593 231.904 252.426 243.237 232.729 246.5C232.729 221.833 232.729 197.167 232.729 172.5Z" fill="#FBFAFA"/>
<path fill-rule="evenodd" clip-rule="evenodd" d="M181.729 170.5C180.31 171.451 178.644 171.784 176.729 171.5C177.061 212.67 176.728 253.67 175.729 294.5C175.729 253.167 175.729 211.833 175.729 170.5C177.729 170.5 179.729 170.5 181.729 170.5Z" fill="#BA8F2C"/>
<path fill-rule="evenodd" clip-rule="evenodd" d="M97.7295 138.5C98.7285 180.663 99.0615 222.997 98.7295 265.5C97.4385 265.737 96.4385 265.404 95.7295 264.5C97.7245 222.847 98.3905 180.847 97.7295 138.5Z" fill="#EFE7D2"/>
<path fill-rule="evenodd" clip-rule="evenodd" d="M153.729 261.5C155.836 260.532 158.17 260.198 160.729 260.5C160.729 273.833 160.729 287.167 160.729 300.5C159.734 287.677 159.4 274.677 159.729 261.5C157.729 261.5 155.729 261.5 153.729 261.5Z" fill="#DECB9F"/>
<path d="M35.84 335.707C35.5467 338.294 34.6533 340.574 33.16 342.547C31.6667 344.494 29.6933 346.014 27.24 347.107C24.7867 348.201 21.9867 348.747 18.84 348.747C15.4 348.747 12.3733 348.094 9.76 346.787C7.17333 345.481 5.16 343.654 3.72 341.307C2.28 338.961 1.56 336.227 1.56 333.107C1.56 329.987 2.28 327.254 3.72 324.907C5.16 322.561 7.17333 320.734 9.76 319.427C12.3733 318.121 15.4 317.467 18.84 317.467C21.9867 317.467 24.7867 318.014 27.24 319.107C29.6933 320.201 31.6667 321.721 33.16 323.667C34.6533 325.614 35.5467 327.894 35.84 330.507H28.24C27.9733 329.147 27.4267 327.987 26.6 327.027C25.8 326.067 24.7333 325.334 23.4 324.827C22.0933 324.294 20.5733 324.027 18.84 324.027C16.84 324.027 15.12 324.401 13.68 325.147C12.24 325.867 11.1333 326.907 10.36 328.267C9.58667 329.627 9.2 331.241 9.2 333.107C9.2 334.974 9.58667 336.587 10.36 337.947C11.1333 339.307 12.24 340.361 13.68 341.107C15.12 341.827 16.84 342.187 18.84 342.187C20.5733 342.187 22.0933 341.934 23.4 341.427C24.7333 340.921 25.8 340.187 26.6 339.227C27.4267 338.267 27.9733 337.094 28.24 335.707H35.84ZM60.1903 348.107L59.1903 339.827L60.2703 336.707L59.1903 333.627L60.1903 325.307H67.9103L66.5103 336.707L67.9103 348.107H60.1903ZM62.0303 336.707C61.6303 339.134 60.8703 341.254 59.7503 343.067C58.6303 344.854 57.217 346.254 55.5103 347.267C53.8036 348.254 51.8836 348.747 49.7503 348.747C47.5103 348.747 45.537 348.241 43.8303 347.227C42.1503 346.214 40.8303 344.814 39.8703 343.027C38.9103 341.214 38.4303 339.107 38.4303 336.707C38.4303 334.307 38.9103 332.214 39.8703 330.427C40.8303 328.614 42.1503 327.201 43.8303 326.187C45.537 325.174 47.5103 324.667 49.7503 324.667C51.8836 324.667 53.8036 325.174 55.5103 326.187C57.217 327.174 58.6303 328.561 59.7503 330.347C60.897 332.134 61.657 334.254 62.0303 336.707ZM45.9503 336.707C45.9503 337.934 46.2036 339.027 46.7103 339.987C47.217 340.921 47.9103 341.667 48.7903 342.227C49.697 342.761 50.737 343.027 51.9103 343.027C53.0836 343.027 54.1903 342.761 55.2303 342.227C56.297 341.667 57.2303 340.921 58.0303 339.987C58.8303 339.027 59.4303 337.934 59.8303 336.707C59.4303 335.481 58.8303 334.401 58.0303 333.467C57.2303 332.507 56.297 331.761 55.2303 331.227C54.1903 330.667 53.0836 330.387 51.9103 330.387C50.737 330.387 49.697 330.667 48.7903 331.227C47.9103 331.761 47.217 332.507 46.7103 333.467C46.2036 334.401 45.9503 335.481 45.9503 336.707ZM87.6084 322.227C85.7951 322.227 84.5018 322.574 83.7284 323.267C82.9818 323.961 82.6084 325.054 82.6084 326.547V348.107H75.1684V326.987C75.1684 324.827 75.5951 322.987 76.4484 321.467C77.3018 319.921 78.5818 318.734 80.2884 317.907C82.0218 317.081 84.1684 316.667 86.7284 316.667C87.9018 316.667 88.9418 316.761 89.8484 316.947C90.7551 317.107 91.7018 317.334 92.6884 317.627V323.147C91.8884 322.854 91.0751 322.627 90.2484 322.467C89.4218 322.307 88.5418 322.227 87.6084 322.227ZM70.4884 332.627V327.107H92.1684V332.627H70.4884ZM107.394 348.747C104.674 348.747 102.234 348.241 100.074 347.227C97.9407 346.214 96.2607 344.801 95.0341 342.987C93.8074 341.174 93.1941 339.054 93.1941 336.627C93.1941 334.254 93.7807 332.174 94.9541 330.387C96.1274 328.601 97.7407 327.201 99.7941 326.187C101.874 325.174 104.221 324.667 106.834 324.667C109.501 324.667 111.794 325.254 113.714 326.427C115.634 327.601 117.114 329.254 118.154 331.387C119.194 333.521 119.714 336.027 119.714 338.907H99.1541V334.227H115.634L112.954 335.907C112.874 334.654 112.567 333.601 112.034 332.747C111.527 331.867 110.847 331.201 109.994 330.747C109.141 330.267 108.127 330.027 106.954 330.027C105.674 330.027 104.567 330.281 103.634 330.787C102.701 331.294 101.967 332.001 101.434 332.907C100.927 333.814 100.674 334.867 100.674 336.067C100.674 337.587 101.007 338.881 101.674 339.947C102.367 341.014 103.354 341.827 104.634 342.387C105.941 342.947 107.527 343.227 109.394 343.227C111.101 343.227 112.807 343.001 114.514 342.547C116.221 342.067 117.754 341.401 119.114 340.547V345.387C117.567 346.454 115.794 347.281 113.794 347.867C111.821 348.454 109.687 348.747 107.394 348.747ZM107.634 315.627H114.874L109.554 323.027H102.634L107.634 315.627ZM153.814 333.387L154.454 331.907C156.8 331.961 158.72 332.321 160.214 332.987C161.734 333.654 162.854 334.574 163.574 335.747C164.32 336.894 164.694 338.227 164.694 339.747C164.694 341.347 164.32 342.787 163.574 344.067C162.827 345.321 161.707 346.307 160.214 347.027C158.747 347.747 156.907 348.107 154.694 348.107H133.094L135.414 332.707L133.094 318.107H153.934C156.707 318.107 158.854 318.761 160.374 320.067C161.92 321.347 162.694 323.121 162.694 325.387C162.694 326.641 162.4 327.841 161.814 328.987C161.227 330.134 160.294 331.107 159.014 331.907C157.734 332.681 156 333.174 153.814 333.387ZM140.534 346.267L137.654 342.707H152.894C154.2 342.707 155.214 342.401 155.934 341.787C156.68 341.147 157.054 340.254 157.054 339.107C157.054 337.961 156.64 337.054 155.814 336.387C155.014 335.694 153.814 335.347 152.214 335.347H139.734V330.067H151.254C152.347 330.067 153.254 329.761 153.974 329.147C154.694 328.507 155.054 327.641 155.054 326.547C155.054 325.667 154.747 324.947 154.134 324.387C153.52 323.801 152.627 323.507 151.454 323.507H137.694L140.534 319.947L142.654 332.707L140.534 346.267ZM181.657 348.747C178.777 348.747 176.257 348.241 174.097 347.227C171.937 346.214 170.257 344.801 169.057 342.987C167.857 341.174 167.257 339.081 167.257 336.707C167.257 334.307 167.857 332.214 169.057 330.427C170.257 328.614 171.937 327.201 174.097 326.187C176.283 325.174 178.803 324.667 181.657 324.667C184.537 324.667 187.057 325.174 189.217 326.187C191.377 327.201 193.057 328.614 194.257 330.427C195.483 332.214 196.097 334.307 196.097 336.707C196.097 339.107 195.483 341.214 194.257 343.027C193.057 344.814 191.377 346.214 189.217 347.227C187.057 348.241 184.537 348.747 181.657 348.747ZM181.657 343.147C183.123 343.147 184.363 342.894 185.377 342.387C186.417 341.854 187.203 341.107 187.737 340.147C188.297 339.187 188.577 338.041 188.577 336.707C188.577 335.374 188.297 334.227 187.737 333.267C187.203 332.281 186.417 331.534 185.377 331.027C184.363 330.494 183.123 330.227 181.657 330.227C180.243 330.227 179.017 330.494 177.977 331.027C176.937 331.534 176.137 332.281 175.577 333.267C175.017 334.227 174.737 335.374 174.737 336.707C174.737 338.041 175.017 339.187 175.577 340.147C176.137 341.107 176.937 341.854 177.977 342.387C179.017 342.894 180.243 343.147 181.657 343.147ZM213.063 348.747C210.183 348.747 207.663 348.241 205.503 347.227C203.343 346.214 201.663 344.801 200.463 342.987C199.263 341.174 198.663 339.081 198.663 336.707C198.663 334.307 199.263 332.214 200.463 330.427C201.663 328.614 203.343 327.201 205.503 326.187C207.689 325.174 210.209 324.667 213.063 324.667C215.943 324.667 218.463 325.174 220.623 326.187C222.783 327.201 224.463 328.614 225.663 330.427C226.889 332.214 227.503 334.307 227.503 336.707C227.503 339.107 226.889 341.214 225.663 343.027C224.463 344.814 222.783 346.214 220.623 347.227C218.463 348.241 215.943 348.747 213.063 348.747ZM213.063 343.147C214.529 343.147 215.769 342.894 216.783 342.387C217.823 341.854 218.609 341.107 219.143 340.147C219.703 339.187 219.983 338.041 219.983 336.707C219.983 335.374 219.703 334.227 219.143 333.267C218.609 332.281 217.823 331.534 216.783 331.027C215.769 330.494 214.529 330.227 213.063 330.227C211.649 330.227 210.423 330.494 209.383 331.027C208.343 331.534 207.543 332.281 206.983 333.267C206.423 334.227 206.143 335.374 206.143 336.707C206.143 338.041 206.423 339.187 206.983 340.147C207.543 341.107 208.343 341.854 209.383 342.387C210.423 342.894 211.649 343.147 213.063 343.147ZM238.589 342.067L236.549 341.387L249.629 325.307H257.589L237.869 348.107H231.189V317.307H238.589V342.067ZM243.149 336.947L248.669 332.907L258.189 348.107H249.749L243.149 336.947ZM285.268 340.787C285.268 342.494 284.761 343.947 283.748 345.147C282.761 346.321 281.308 347.214 279.388 347.827C277.468 348.441 275.134 348.747 272.388 348.747C269.588 348.747 267.134 348.401 265.028 347.707C262.921 347.014 261.281 346.041 260.108 344.787C258.934 343.534 258.308 342.081 258.228 340.427H265.788C265.948 341.094 266.321 341.681 266.908 342.187C267.521 342.694 268.308 343.081 269.268 343.347C270.228 343.587 271.361 343.707 272.668 343.707C274.428 343.707 275.761 343.521 276.668 343.147C277.574 342.774 278.028 342.214 278.028 341.467C278.028 340.907 277.694 340.481 277.028 340.187C276.388 339.894 275.228 339.681 273.548 339.547L269.388 339.227C266.774 339.014 264.694 338.601 263.148 337.987C261.601 337.347 260.494 336.534 259.827 335.547C259.188 334.561 258.868 333.454 258.868 332.227C258.868 330.547 259.388 329.161 260.428 328.067C261.494 326.947 262.961 326.107 264.828 325.547C266.694 324.961 268.881 324.667 271.388 324.667C273.894 324.667 276.121 325.001 278.068 325.667C280.041 326.334 281.614 327.254 282.788 328.427C283.988 329.601 284.668 330.974 284.828 332.547H277.268C277.161 332.014 276.868 331.521 276.388 331.067C275.934 330.614 275.268 330.254 274.388 329.987C273.534 329.694 272.414 329.547 271.028 329.547C269.454 329.547 268.254 329.721 267.428 330.067C266.601 330.414 266.188 330.921 266.188 331.587C266.188 332.094 266.441 332.507 266.948 332.827C267.454 333.121 268.414 333.321 269.828 333.427L275.228 333.827C277.788 334.041 279.788 334.454 281.228 335.067C282.694 335.654 283.734 336.427 284.348 337.387C284.961 338.347 285.268 339.481 285.268 340.787Z" fill="#B18113"/>
</svg>
