<svg width="287" height="305" viewBox="0 0 287 305" fill="none" xmlns="http://www.w3.org/2000/svg">
<path fill-rule="evenodd" clip-rule="evenodd" d="M157.729 98.5C157.062 94.5 156.396 90.5 155.729 86.5C155.669 82.486 154.002 79.319 150.729 77C139.619 73.779 128.952 69.445 118.729 64C103.431 48.438 101.931 31.604 114.229 13.5C126.139 -0.445037 140.305 -3.27804 156.729 4.99996C170.488 16.655 169.822 27.655 154.729 38C150.123 41.033 145.123 42.033 139.729 41C135.063 37.158 133.729 32.325 135.729 26.5C136.889 31.411 139.889 33.244 144.729 32C150.775 30.17 154.775 26.337 156.729 20.5C156.126 17.378 154.459 14.878 151.729 13C135.646 6.61896 124.146 11.452 117.229 27.5C112.725 42.649 117.558 53.482 131.729 60C138.32 62.531 144.987 64.864 151.729 67C158.003 69.426 161.336 73.926 161.729 80.5C161.286 86.717 159.953 92.717 157.729 98.5Z" fill="#B28317"/>
<path fill-rule="evenodd" clip-rule="evenodd" d="M185.729 49.4999C195.438 48.1079 202.938 51.4419 208.229 59.4999C208.918 66.6299 206.418 72.4629 200.729 76.9999C192.702 80.6129 188.535 78.1129 188.229 69.4999C193.248 73.6949 197.248 72.6949 200.229 66.4999C201.773 61.3769 199.939 58.2109 194.729 56.9999C185.162 56.2089 178.662 60.3749 175.229 69.4999C174.724 74.8839 174.724 80.2179 175.229 85.4999C164.612 69.5079 168.112 57.5079 185.729 49.4999Z" fill="#B4851F"/>
<path fill-rule="evenodd" clip-rule="evenodd" d="M155.729 86.5C156.396 90.5 157.062 94.5 157.729 98.5C157.242 99.473 156.742 100.473 156.229 101.5C155.73 96.511 155.563 91.511 155.729 86.5Z" fill="#CDAF69"/>
<path fill-rule="evenodd" clip-rule="evenodd" d="M160.73 260.5V300.5C161.52 301.794 162.52 302.961 163.73 304C184.409 304.832 204.076 300.832 222.73 292C227.346 289.382 230.513 285.549 232.23 280.5C232.4 274.804 232.9 269.138 233.73 263.5C239.539 262.599 245.206 261.099 250.73 259C275.23 246.848 287.063 227.015 286.23 199.5C280.471 170.249 262.638 155.915 232.73 156.5C237.013 139.9 231.346 128.4 215.73 122C191.665 113.86 166.998 111.527 141.73 115C127.301 116.196 114.301 121.029 102.73 129.5C98.0086 126.473 93.0086 123.973 87.7296 122C60.1696 114.957 32.1696 112.29 3.72956 114L1.22956 116.5C0.562559 164.833 0.562559 213.167 1.22956 261.5C1.60356 262.416 2.10356 263.25 2.72956 264C25.1406 264.122 47.4736 265.456 69.7296 268C82.2366 269.782 93.5706 274.282 103.73 281.5C105.417 281.24 106.917 280.573 108.23 279.5C108.462 276.262 109.962 273.762 112.73 272C125.617 265.528 139.284 262.028 153.73 261.5C155.837 260.532 158.171 260.198 160.73 260.5ZM269.229 212.5C271.214 186.316 259.047 172.983 232.729 172.5V246.5C252.426 243.237 264.593 231.904 269.229 212.5Z" fill="#B18113"/>
<path fill-rule="evenodd" clip-rule="evenodd" d="M37.7293 124.5C55.8763 124.953 73.5433 128.12 90.7293 134C93.4683 135.026 95.8013 136.526 97.7293 138.5C98.3903 180.847 97.7243 222.847 95.7293 264.5C74.9963 257.602 53.6633 254.269 31.7293 254.5C25.2503 253.509 18.5833 253.176 11.7293 253.5C11.7293 210.5 11.7293 167.5 11.7293 124.5C20.3963 124.5 29.0623 124.5 37.7293 124.5Z" fill="#FCFCFC"/>
<path fill-rule="evenodd" clip-rule="evenodd" d="M152.729 123.5C173.341 122.183 193.341 125.016 212.729 132C216.368 133.636 219.368 135.97 221.729 139C221.562 139.5 221.396 140 221.229 140.5C206.447 132.55 190.614 128.883 173.729 129.5C157.757 129.18 142.757 132.68 128.729 140C150.727 136.411 172.727 136.744 194.729 141C201.35 142.571 207.683 144.905 213.729 148C212.356 148.875 210.856 149.375 209.229 149.5C187.842 143.64 166.342 143.14 144.729 148C139.83 149.449 135.164 151.449 130.729 154C150.087 150.42 169.421 150.754 188.729 155C180.407 155.809 172.074 156.475 163.729 157C162.813 157.374 161.979 157.874 161.229 158.5C160.729 189.165 160.562 219.832 160.729 250.5C142.914 250.538 125.914 254.205 109.729 261.5C108.562 220.504 108.396 179.504 109.229 138.5C112.95 134.449 117.45 131.616 122.729 130C132.655 126.854 142.655 124.687 152.729 123.5Z" fill="#FCFAF7"/>
<path fill-rule="evenodd" clip-rule="evenodd" d="M37.7293 124.5C29.0623 124.5 20.3963 124.5 11.7293 124.5C11.7293 167.5 11.7293 210.5 11.7293 253.5C18.5833 253.176 25.2503 253.509 31.7293 254.5C24.7293 254.5 17.7293 254.5 10.7293 254.5C10.7293 210.833 10.7293 167.167 10.7293 123.5C19.9113 123.173 28.9113 123.507 37.7293 124.5Z" fill="#DFCDA3"/>
<path fill-rule="evenodd" clip-rule="evenodd" d="M181.729 170.5C179.729 170.5 177.729 170.5 175.729 170.5C175.729 211.833 175.729 253.167 175.729 294.5C173.729 294.5 171.729 294.5 169.729 294.5C169.729 251.5 169.729 208.5 169.729 165.5C187.655 165.594 204.655 162.094 220.729 155C209.066 163.391 196.066 168.557 181.729 170.5Z" fill="#C9A758"/>
<path fill-rule="evenodd" clip-rule="evenodd" d="M169.729 165.5C169.729 208.5 169.729 251.5 169.729 294.5C171.729 294.5 173.729 294.5 175.729 294.5C173.622 295.468 171.288 295.802 168.729 295.5C168.397 251.997 168.73 208.663 169.729 165.5Z" fill="#BE9536"/>
<path fill-rule="evenodd" clip-rule="evenodd" d="M181.729 170.5C180.31 171.451 178.644 171.784 176.729 171.5C177.061 212.67 176.728 253.67 175.729 294.5C175.729 253.167 175.729 211.833 175.729 170.5C177.729 170.5 179.729 170.5 181.729 170.5Z" fill="#BA8F2C"/>
<path fill-rule="evenodd" clip-rule="evenodd" d="M97.7293 138.5C98.7283 180.663 99.0613 222.997 98.7293 265.5C97.4383 265.737 96.4383 265.404 95.7293 264.5C97.7243 222.847 98.3903 180.847 97.7293 138.5Z" fill="#EFE7D2"/>
<path fill-rule="evenodd" clip-rule="evenodd" d="M153.729 261.5C155.836 260.532 158.17 260.198 160.729 260.5C160.729 273.833 160.729 287.167 160.729 300.5C159.734 287.677 159.4 274.677 159.729 261.5C157.729 261.5 155.729 261.5 153.729 261.5Z" fill="#DECB9F"/>
</svg>
