<svg width="287" height="305" viewBox="0 0 287 305" fill="none" xmlns="http://www.w3.org/2000/svg">
<path fill-rule="evenodd" clip-rule="evenodd" d="M157.73 98.5C157.063 94.5 156.397 90.5 155.73 86.5C155.67 82.486 154.003 79.319 150.73 77C139.62 73.779 128.953 69.445 118.73 64C103.432 48.438 101.932 31.604 114.23 13.5C126.14 -0.445037 140.306 -3.27804 156.73 4.99996C170.489 16.655 169.823 27.655 154.73 38C150.124 41.033 145.124 42.033 139.73 41C135.064 37.158 133.73 32.325 135.73 26.5C136.89 31.411 139.89 33.244 144.73 32C150.776 30.17 154.776 26.337 156.73 20.5C156.127 17.378 154.46 14.878 151.73 13C135.647 6.61896 124.147 11.452 117.23 27.5C112.726 42.649 117.559 53.482 131.73 60C138.321 62.531 144.988 64.864 151.73 67C158.004 69.426 161.337 73.926 161.73 80.5C161.287 86.717 159.954 92.717 157.73 98.5Z" fill="#B28317"/>
<path fill-rule="evenodd" clip-rule="evenodd" d="M185.729 49.4999C195.438 48.1079 202.938 51.4419 208.229 59.4999C208.918 66.6299 206.418 72.4629 200.729 76.9999C192.702 80.6129 188.535 78.1129 188.229 69.4999C193.248 73.6949 197.248 72.6949 200.229 66.4999C201.773 61.3769 199.939 58.2109 194.729 56.9999C185.162 56.2089 178.662 60.3749 175.229 69.4999C174.724 74.8839 174.724 80.2179 175.229 85.4999C164.612 69.5079 168.112 57.5079 185.729 49.4999Z" fill="#B4851F"/>
<path fill-rule="evenodd" clip-rule="evenodd" d="M155.73 86.5C156.397 90.5 157.063 94.5 157.73 98.5C157.243 99.473 156.743 100.473 156.23 101.5C155.731 96.511 155.564 91.511 155.73 86.5Z" fill="#CDAF69"/>
<path fill-rule="evenodd" clip-rule="evenodd" d="M160.73 300.5C160.73 287.167 160.73 273.833 160.73 260.5C158.171 260.198 155.837 260.532 153.73 261.5C139.284 262.028 125.617 265.528 112.73 272C109.962 273.762 108.462 276.262 108.23 279.5C106.917 280.573 105.417 281.24 103.73 281.5C93.5707 274.282 82.2367 269.782 69.7297 268C47.4737 265.456 25.1407 264.122 2.72974 264C2.10374 263.25 1.60374 262.416 1.22974 261.5C0.562742 213.167 0.562742 164.833 1.22974 116.5C2.06274 115.667 2.89674 114.833 3.72974 114C32.1697 112.29 60.1697 114.957 87.7297 122C93.0087 123.973 98.0087 126.473 102.73 129.5C114.301 121.029 127.301 116.196 141.73 115C166.998 111.527 191.665 113.86 215.73 122C231.346 128.4 237.013 139.9 232.73 156.5C262.638 155.915 280.471 170.249 286.23 199.5C287.063 227.015 275.23 246.848 250.73 259C245.206 261.099 239.539 262.599 233.73 263.5C232.9 269.138 232.4 274.804 232.23 280.5C230.513 285.549 227.346 289.382 222.73 292C204.076 300.832 184.409 304.832 163.73 304C162.52 302.961 161.52 301.794 160.73 300.5Z" fill="#B18113"/>
<path fill-rule="evenodd" clip-rule="evenodd" d="M37.7295 124.5C55.8765 124.953 73.5435 128.12 90.7295 134C93.4685 135.026 95.8015 136.526 97.7295 138.5C98.3905 180.847 97.7245 222.847 95.7295 264.5C74.9965 257.602 53.6635 254.269 31.7295 254.5C25.2505 253.509 18.5835 253.176 11.7295 253.5C11.7295 210.5 11.7295 167.5 11.7295 124.5C20.3965 124.5 29.0625 124.5 37.7295 124.5Z" fill="#FCFCFC"/>
<path fill-rule="evenodd" clip-rule="evenodd" d="M152.729 123.5C173.341 122.183 193.341 125.016 212.729 132C216.368 133.636 219.368 135.97 221.729 139C221.562 139.5 221.396 140 221.229 140.5C206.447 132.55 190.614 128.883 173.729 129.5C157.757 129.18 142.757 132.68 128.729 140C150.727 136.411 172.727 136.744 194.729 141C201.35 142.571 207.683 144.905 213.729 148C212.356 148.875 210.856 149.375 209.229 149.5C187.842 143.64 166.342 143.14 144.729 148C139.83 149.449 135.164 151.449 130.729 154C150.087 150.42 169.421 150.754 188.729 155C180.407 155.809 172.074 156.475 163.729 157C162.813 157.374 161.979 157.874 161.229 158.5C160.729 189.165 160.562 219.832 160.729 250.5C142.914 250.538 125.914 254.205 109.729 261.5C108.562 220.504 108.396 179.504 109.229 138.5C112.95 134.449 117.45 131.616 122.729 130C132.655 126.854 142.655 124.687 152.729 123.5Z" fill="#FCFAF7"/>
<path fill-rule="evenodd" clip-rule="evenodd" d="M37.7295 124.5C29.0625 124.5 20.3965 124.5 11.7295 124.5C11.7295 167.5 11.7295 210.5 11.7295 253.5C18.5835 253.176 25.2505 253.509 31.7295 254.5C24.7295 254.5 17.7295 254.5 10.7295 254.5C10.7295 210.833 10.7295 167.167 10.7295 123.5C19.9115 123.173 28.9115 123.507 37.7295 124.5Z" fill="#DFCDA3"/>
<path fill-rule="evenodd" clip-rule="evenodd" d="M181.729 170.5C179.729 170.5 177.729 170.5 175.729 170.5C175.729 211.833 175.729 253.167 175.729 294.5C173.729 294.5 171.729 294.5 169.729 294.5C169.729 251.5 169.729 208.5 169.729 165.5C187.655 165.594 204.655 162.094 220.729 155C209.066 163.391 196.066 168.557 181.729 170.5Z" fill="#C9A758"/>
<path fill-rule="evenodd" clip-rule="evenodd" d="M169.729 165.5C169.729 208.5 169.729 251.5 169.729 294.5C171.729 294.5 173.729 294.5 175.729 294.5C173.622 295.468 171.288 295.802 168.729 295.5C168.397 251.997 168.73 208.663 169.729 165.5Z" fill="#BE9536"/>
<path fill-rule="evenodd" clip-rule="evenodd" d="M232.729 172.5C259.047 172.983 271.214 186.316 269.229 212.5C264.593 231.904 252.426 243.237 232.729 246.5C232.729 221.833 232.729 197.167 232.729 172.5Z" fill="#FBFAFA"/>
<path fill-rule="evenodd" clip-rule="evenodd" d="M181.729 170.5C180.31 171.451 178.644 171.784 176.729 171.5C177.061 212.67 176.728 253.67 175.729 294.5C175.729 253.167 175.729 211.833 175.729 170.5C177.729 170.5 179.729 170.5 181.729 170.5Z" fill="#BA8F2C"/>
<path fill-rule="evenodd" clip-rule="evenodd" d="M97.7295 138.5C98.7285 180.663 99.0615 222.997 98.7295 265.5C97.4385 265.737 96.4385 265.404 95.7295 264.5C97.7245 222.847 98.3905 180.847 97.7295 138.5Z" fill="#EFE7D2"/>
<path fill-rule="evenodd" clip-rule="evenodd" d="M153.729 261.5C155.836 260.532 158.17 260.198 160.729 260.5C160.729 273.833 160.729 287.167 160.729 300.5C159.734 287.677 159.4 274.677 159.729 261.5C157.729 261.5 155.729 261.5 153.729 261.5Z" fill="#DECB9F"/>
</svg>
